<svg width="367" height="403" viewBox="0 0 367 403" fill="none" xmlns="http://www.w3.org/2000/svg">
<g clip-path="url(#clip0_2008_9350)">
<path d="M183.41 396.18C229.167 396.18 266.26 308.898 266.26 201.23C266.26 93.5621 229.167 6.28003 183.41 6.28003C137.653 6.28003 100.56 93.5621 100.56 201.23C100.56 308.898 137.653 396.18 183.41 396.18Z" stroke="#778388" stroke-width="12.56" stroke-miterlimit="10"/>
<path d="M221.66 274.743C317.163 225.027 377.455 151.823 356.327 111.236C335.199 70.6493 240.651 78.0496 145.148 127.765C49.6457 177.481 -10.6467 250.685 10.4815 291.272C31.6096 331.859 126.157 324.458 221.66 274.743Z" stroke="#778388" stroke-width="12.56" stroke-miterlimit="10"/>
<path d="M356.335 291.229C377.463 250.642 317.171 177.438 221.668 127.722C126.166 78.0066 31.6179 70.6063 10.4898 111.193C-10.6384 151.78 49.654 224.984 145.157 274.7C240.659 324.415 335.207 331.816 356.335 291.229Z" stroke="#778388" stroke-width="12.56" stroke-miterlimit="10"/>
<path d="M162.22 195.43C167.561 195.43 171.89 187.635 171.89 178.02C171.89 168.405 167.561 160.61 162.22 160.61C156.879 160.61 152.55 168.405 152.55 178.02C152.55 187.635 156.879 195.43 162.22 195.43Z" fill="#778388"/>
<path d="M204.77 195.43C210.111 195.43 214.44 187.635 214.44 178.02C214.44 168.405 210.111 160.61 204.77 160.61C199.43 160.61 195.1 168.405 195.1 178.02C195.1 187.635 199.43 195.43 204.77 195.43Z" fill="#778388"/>
<path d="M221.56 212.98C220.03 230.94 203.35 245.09 182.99 245.09C162.63 245.09 145.69 230.72 144.39 212.55" stroke="#778388" stroke-width="12.56" stroke-miterlimit="10" stroke-linecap="round"/>
</g>
<defs>
<clipPath id="clip0_2008_9350">
<rect width="366.83" height="402.46" fill="white"/>
</clipPath>
</defs>
</svg>
