<svg width="197" height="220" viewBox="0 0 197 220" fill="none" xmlns="http://www.w3.org/2000/svg">
<g clip-path="url(#clip0_6033_3133)">
<path d="M34.3623 220C32.3919 220 31.0302 218.027 31.7351 216.183C34.7948 208.277 40.4337 189.401 32.8565 171.647C22.9725 148.409 -10.2038 105.141 3.10835 65.0153C16.4365 24.906 51.391 0 91.5517 0C156.19 2.26126 179.627 48.0639 196.88 123.936L178.425 129.918L183.503 166.05C185.554 180.388 174.436 193.218 159.971 193.218L131.424 193.474L131.488 217.177C131.488 218.733 130.239 220 128.685 220H34.3623Z" fill="#0D0D0D"/>
</g>
<g clip-path="url(#clip1_6033_3133)">
<path d="M72.233 28.3298C76.9546 26.8357 81.6762 25.7633 86.3129 25.1006C88.2064 24.8355 90.0392 26.0645 90.6947 27.9442L97.589 47.8858C98.4993 50.5125 97.1884 53.3441 94.6759 54.1996L83.242 58.0916C80.7173 58.9471 77.9378 57.5132 77.0396 54.8864L69.684 33.6194C68.9072 31.3783 70.0846 29.0166 72.2451 28.3298H72.233Z" fill="url(#paint0_linear_6033_3133)"/>
<path d="M26.109 88.504C23.5479 74.9485 26.6431 63.1402 33.7923 53.4164C34.7148 52.1633 36.6447 52.5007 37.1666 54.0068L48.0057 85.3712C48.9161 87.9979 47.6052 90.8295 45.0926 91.685L33.6588 95.5769C31.1341 96.4324 28.3545 94.9985 27.4563 92.3718L26.1211 88.4919L26.109 88.504Z" fill="url(#paint1_linear_6033_3133)"/>
<path d="M101.898 24.5222C109.496 25.0885 116.609 26.9562 122.909 30.1854C125.688 31.6072 127.788 34.1617 128.832 37.174L128.856 37.2342C129.767 39.861 128.456 42.6926 125.943 43.5481L111.317 48.5244C108.792 49.3799 106.013 47.946 105.114 45.3193L99.2033 28.2093C98.5479 26.3055 99.968 24.3897 101.91 24.5343L101.898 24.5222Z" fill="url(#paint2_linear_6033_3133)"/>
<path d="M121.476 71.1891C103.087 77.4548 88.8497 79.0332 82.4288 71.8277C80.6688 69.8517 81.4335 66.7068 83.8489 65.8874L134.67 48.5847C138.384 47.3195 142.548 49.2112 144.186 52.9706C144.745 54.2478 145.254 55.5612 145.728 56.9228C158.181 92.9743 136.018 113.868 103.597 124.905C100.296 126.025 97.0185 126.965 93.7777 127.785C85.4268 102.915 133.384 105.626 121.488 71.2132L121.476 71.1891Z" fill="url(#paint3_linear_6033_3133)"/>
<path d="M37.9556 103.084L107.7 79.3345C110.54 78.3705 113.514 80.937 112.992 83.9855C110.042 101.228 77.6222 106.951 83.2177 124.206L85.0748 129.58C73.1676 133.147 61.4909 139.834 54.8151 151.425C53.5649 153.606 50.2391 152.932 49.9599 150.437L46.9376 123.085C42.6408 120.17 38.781 116.338 35.4673 111.458C33.3917 108.409 34.6055 104.24 37.9556 103.096V103.084Z" fill="url(#paint4_linear_6033_3133)"/>
<path d="M44.5707 42.5118C48.1999 39.6561 52.2419 37.0896 56.6358 34.8003C58.9662 33.5833 61.8793 34.8003 62.7775 37.4029L76.0564 75.8161C76.9667 78.4428 75.6558 81.2744 73.1433 82.1299L61.7094 86.0218C59.1847 86.8773 56.4052 85.4435 55.507 82.8167L43.272 47.4159C42.6529 45.6205 43.1506 43.6324 44.5829 42.4998L44.5707 42.5118Z" fill="url(#paint5_linear_6033_3133)"/>
</g>
<defs>
<linearGradient id="paint0_linear_6033_3133" x1="87.2324" y1="54.5731" x2="87.2324" y2="124.024" gradientUnits="userSpaceOnUse">
<stop stop-color="#21D0FC"/>
<stop offset="1" stop-color="#ECDCAA"/>
</linearGradient>
<linearGradient id="paint1_linear_6033_3133" x1="87.2324" y1="54.5731" x2="87.2324" y2="124.024" gradientUnits="userSpaceOnUse">
<stop stop-color="#21D0FC"/>
<stop offset="1" stop-color="#ECDCAA"/>
</linearGradient>
<linearGradient id="paint2_linear_6033_3133" x1="87.2324" y1="54.5731" x2="87.2324" y2="124.024" gradientUnits="userSpaceOnUse">
<stop stop-color="#21D0FC"/>
<stop offset="1" stop-color="#ECDCAA"/>
</linearGradient>
<linearGradient id="paint3_linear_6033_3133" x1="87.2324" y1="54.5731" x2="87.2324" y2="124.024" gradientUnits="userSpaceOnUse">
<stop stop-color="#21D0FC"/>
<stop offset="1" stop-color="#ECDCAA"/>
</linearGradient>
<linearGradient id="paint4_linear_6033_3133" x1="87.2324" y1="54.5731" x2="87.2324" y2="124.024" gradientUnits="userSpaceOnUse">
<stop stop-color="#21D0FC"/>
<stop offset="1" stop-color="#ECDCAA"/>
</linearGradient>
<linearGradient id="paint5_linear_6033_3133" x1="87.2324" y1="54.5731" x2="87.2324" y2="124.024" gradientUnits="userSpaceOnUse">
<stop stop-color="#21D0FC"/>
<stop offset="1" stop-color="#ECDCAA"/>
</linearGradient>
<clipPath id="clip0_6033_3133">
<rect width="196.879" height="220" fill="white"/>
</clipPath>
<clipPath id="clip1_6033_3133">
<rect width="124.013" height="128.217" fill="white" transform="translate(25.2229 24.5222)"/>
</clipPath>
</defs>
</svg>
