<svg width="204" height="220" viewBox="0 0 204 220" fill="none" xmlns="http://www.w3.org/2000/svg">
<g clip-path="url(#clip0_6033_3105)">
<path d="M34.3623 220C32.3919 220 31.0302 218.027 31.7351 216.183C34.7948 208.277 40.4337 189.401 32.8565 171.647C22.9725 148.409 -10.2038 105.141 3.10835 65.0153C16.4365 24.906 51.391 0 91.5517 0C156.19 2.26126 179.627 48.0639 196.88 123.936L178.425 129.918L183.503 166.05C185.554 180.388 174.436 193.218 159.971 193.218L131.424 193.474L131.488 217.177C131.488 218.733 130.239 220 128.685 220H34.3623Z" fill="url(#paint0_linear_6033_3105)"/>
</g>
<g clip-path="url(#clip1_6033_3105)">
<path d="M72.2329 28.3298C76.9545 26.8357 81.6762 25.7633 86.3128 25.1006C88.2064 24.8355 90.0392 26.0645 90.6946 27.9442L97.5889 47.8858C98.4993 50.5125 97.1884 53.3441 94.6758 54.1996L83.242 58.0916C80.7173 58.9471 77.9377 57.5132 77.0395 54.8864L69.6839 33.6194C68.9071 31.3783 70.0845 29.0166 72.245 28.3298H72.2329Z" fill="#0D0D0D"/>
<path d="M26.109 88.504C23.5479 74.9486 26.6431 63.1403 33.7923 53.4165C34.7148 52.1633 36.6447 52.5007 37.1666 54.0069L48.0057 85.3712C48.9161 87.998 47.6052 90.8295 45.0926 91.685L33.6588 95.577C31.1341 96.4325 28.3545 94.9986 27.4563 92.3718L26.1211 88.492L26.109 88.504Z" fill="#0D0D0D"/>
<path d="M101.898 24.5222C109.496 25.0885 116.609 26.9562 122.909 30.1854C125.688 31.6072 127.788 34.1617 128.832 37.174L128.856 37.2342C129.766 39.861 128.456 42.6926 125.943 43.5481L111.317 48.5244C108.792 49.3799 106.013 47.946 105.114 45.3193L99.2032 28.2093C98.5478 26.3055 99.9679 24.3897 101.91 24.5343L101.898 24.5222Z" fill="#0D0D0D"/>
<path d="M121.476 71.1892C103.087 77.4548 88.8497 79.0333 82.4288 71.8278C80.6688 69.8517 81.4335 66.7068 83.8489 65.8875L134.67 48.5847C138.384 47.3195 142.548 49.2113 144.186 52.9706C144.745 54.2479 145.254 55.5612 145.728 56.9228C158.181 92.9743 136.018 113.868 103.597 124.905C100.296 126.026 97.0185 126.965 93.7777 127.785C85.4268 102.915 133.384 105.626 121.488 71.2133L121.476 71.1892Z" fill="#0D0D0D"/>
<path d="M37.9554 103.084L107.7 79.3343C110.54 78.3704 113.514 80.9369 112.992 83.9854C110.042 101.228 77.622 106.951 83.2176 124.206L85.0747 129.58C73.1674 133.146 61.4908 139.834 54.815 151.425C53.5648 153.606 50.239 152.931 49.9598 150.437L46.9375 123.085C42.6407 120.169 38.7808 116.338 35.4672 111.458C33.3916 108.409 34.6054 104.24 37.9554 103.096V103.084Z" fill="#0D0D0D"/>
<path d="M44.5706 42.5117C48.1999 39.656 52.2418 37.0895 56.6357 34.8002C58.9662 33.5832 61.8793 34.8002 62.7775 37.4028L76.0563 75.816C76.9666 78.4427 75.6558 81.2743 73.1432 82.1298L61.7093 86.0217C59.1846 86.8772 56.4051 85.4434 55.5069 82.8166L43.2719 47.4158C42.6529 45.6204 43.1505 43.6323 44.5828 42.4997L44.5706 42.5117Z" fill="#0D0D0D"/>
</g>
<defs>
<linearGradient id="paint0_linear_6033_3105" x1="98.4408" y1="51.5625" x2="98.4408" y2="170.729" gradientUnits="userSpaceOnUse">
<stop stop-color="#21D0FC"/>
<stop offset="1" stop-color="#ECDCAA"/>
</linearGradient>
<clipPath id="clip0_6033_3105">
<rect width="196.879" height="220" fill="white"/>
</clipPath>
<clipPath id="clip1_6033_3105">
<rect width="124.013" height="128.217" fill="white" transform="translate(25.2229 24.5222)"/>
</clipPath>
</defs>
</svg>
