<svg width="407" height="41" viewBox="0 0 407 41" fill="none" xmlns="http://www.w3.org/2000/svg">
<path d="M19.0401 0.839886C18.5361 1.67989 18.3121 2.63189 18.3121 3.52789C18.3121 8.51189 24.5841 22.3439 26.6001 29.2879C28.7281 21.7279 34.6081 9.85589 34.6081 4.03189C34.6081 3.02389 34.4961 1.84789 33.9361 0.839886H48.8321C47.5441 2.35189 47.0401 4.31189 47.0401 6.66389C47.0401 10.7519 48.7761 25.4799 49.5601 31.8079C49.9521 35.2239 51.1281 38.1919 52.6401 39.5359H37.9681C40.2081 37.9119 41.0481 35.3919 41.0481 32.6479C41.0481 28.4479 39.1441 15.1759 38.5841 8.67989C36.8481 16.3519 29.4001 32.2559 28.2801 39.7039H21.3921C20.6081 35.2799 12.3201 15.6799 10.2481 8.67989C9.85607 15.4559 7.95207 27.5519 7.95207 32.0879C7.95207 35.6719 9.12807 37.9119 11.8161 39.5359H6.65039e-05C1.51207 38.1919 2.63207 35.3919 3.13607 31.8079C3.52807 28.5599 5.60007 10.2479 5.60007 6.43989C5.60007 4.47989 5.09607 2.35189 3.80807 0.839886H19.0401ZM53.5571 39.5359C54.6771 38.5279 56.4131 35.1679 58.2611 31.0239C62.7411 21.0559 68.2291 6.55189 68.2291 3.97589C68.2291 2.91189 67.4451 1.39989 66.8851 0.839886H78.5891C79.9891 6.99989 84.9171 20.5519 89.6211 31.0799C91.2451 34.7199 92.7571 37.8559 94.1011 39.5359H79.6531C81.2211 38.4159 82.0051 37.2959 82.0051 35.3359C82.0051 31.2479 78.8691 28.6719 72.5971 28.6719C69.0131 28.6719 66.0451 29.4559 63.9171 30.5199C63.5251 31.8079 63.3011 32.8719 63.3011 33.6559C63.3011 35.3359 64.0851 38.2479 65.4291 39.5359H53.5571ZM65.3731 26.2639C68.1731 24.7519 71.8131 23.9119 75.2291 23.9119C76.0131 23.9119 76.7971 23.9679 77.5811 24.0799C76.0691 20.1039 73.4931 13.6639 71.8691 9.29589C70.4691 14.0559 67.4451 20.8319 65.3731 26.2639ZM94.8791 39.5359C97.5671 37.5199 98.2391 34.9999 98.2391 32.0879V8.28789C98.2391 5.37589 97.5671 2.85589 94.8791 0.839886H114.591C121.927 0.839886 126.351 4.25589 126.351 10.3599C126.351 15.9039 122.655 19.7679 118.063 21.3359C122.879 23.1279 125.063 27.8879 126.575 33.4319C127.079 35.3919 128.199 37.9679 130.551 39.5359H116.439C117.671 38.5839 118.175 37.0159 118.119 35.0559C118.063 29.8479 113.919 24.2479 107.927 24.2479C107.535 24.2479 107.143 24.2479 106.751 24.3039V32.0879C106.751 34.9999 107.423 37.5199 110.111 39.5359H94.8791ZM106.751 19.8799H111.063C114.759 19.8799 117.839 16.9679 117.839 11.7599C117.839 7.05589 115.319 4.98389 111.679 4.98389H106.751V19.8799ZM131.785 39.5359C134.473 37.5199 135.145 34.9999 135.145 32.0879V8.28789C135.145 5.37589 134.473 2.85589 131.785 0.839886H147.241C144.497 2.85589 143.881 5.37589 143.881 8.28789V20.9439C150.489 14.1119 156.873 7.22389 156.873 3.91989C156.873 2.57589 156.257 1.62389 155.305 0.839886H167.905C163.481 5.09589 159.281 9.51989 153.121 17.1359C159.561 19.5999 162.529 25.0319 164.601 32.2559C165.609 35.6159 166.505 37.7999 168.969 39.5359H154.857C156.089 38.5839 156.649 36.9599 156.593 34.8319C156.369 28.1119 152.281 22.6799 145.953 22.6799C145.225 22.6799 144.497 22.7359 143.881 22.9039V32.0879C143.881 34.9999 144.497 37.5199 147.241 39.5359H131.785ZM170.223 39.5359C172.911 37.5199 173.583 34.9999 173.583 32.0879V8.28789C173.583 5.37589 172.911 2.85589 170.223 0.839886H186.183C189.487 0.839886 193.015 0.783887 195.871 0.111886L197.495 10.3599C194.247 6.04789 190.719 5.43189 186.295 5.43189H182.319V17.8079H183.047C188.423 17.8079 192.455 17.5279 194.751 14.4479L194.135 26.9919C192.455 22.5679 187.975 22.1759 182.935 22.1759H182.319V34.9439H188.311C192.847 34.9439 196.543 34.0479 199.903 27.7199L197.887 40.3199C195.031 39.5919 191.503 39.5359 188.199 39.5359H170.223ZM210.713 39.5359C213.457 37.5199 214.129 34.9999 214.129 32.0879V5.43189H212.785C208.249 5.43189 204.833 6.04789 201.585 10.3599L203.153 0.111886C206.009 0.783887 209.537 0.839886 212.841 0.839886H224.097C227.401 0.839886 230.929 0.783887 233.785 0.111886L235.409 10.3599C232.105 6.04789 228.689 5.43189 224.209 5.43189H222.809V32.0879C222.809 34.9999 223.481 37.5199 226.169 39.5359H210.713ZM237.473 39.5359C240.161 37.5199 240.833 34.9999 240.833 32.0879V8.28789C240.833 5.37589 240.161 2.85589 237.473 0.839886H257.073C264.969 0.839886 268.889 4.31189 268.889 11.1999C268.889 18.4239 264.409 23.2399 256.401 24.9759L249.457 26.3199V32.0879C249.457 34.9999 250.465 37.5199 254.609 39.5359H237.473ZM249.457 21.3359H253.545C257.353 21.3359 260.377 18.1439 260.377 12.4319C260.377 7.22389 257.857 4.98389 254.161 4.98389H249.457V21.3359ZM271.371 39.5359C274.059 37.5199 274.731 34.9999 274.731 32.0879V8.28789C274.731 5.37589 274.059 2.85589 271.371 0.839886H286.827C284.083 2.85589 283.467 5.37589 283.467 8.28789V34.9439H288.059C292.595 34.9439 296.235 34.0479 299.595 27.7199L297.579 40.3199C294.779 39.5919 291.251 39.5359 287.891 39.5359H271.371ZM300.088 39.5359C301.208 38.5279 302.944 35.1679 304.792 31.0239C309.272 21.0559 314.76 6.55189 314.76 3.97589C314.76 2.91189 313.976 1.39989 313.416 0.839886H325.12C326.52 6.99989 331.448 20.5519 336.152 31.0799C337.776 34.7199 339.288 37.8559 340.632 39.5359H326.184C327.752 38.4159 328.536 37.2959 328.536 35.3359C328.536 31.2479 325.4 28.6719 319.128 28.6719C315.544 28.6719 312.576 29.4559 310.448 30.5199C310.056 31.8079 309.832 32.8719 309.832 33.6559C309.832 35.3359 310.616 38.2479 311.96 39.5359H300.088ZM311.904 26.2639C314.704 24.7519 318.344 23.9119 321.76 23.9119C322.544 23.9119 323.328 23.9679 324.112 24.0799C322.6 20.1039 320.024 13.6639 318.4 9.29589C317 14.0559 313.976 20.8319 311.904 26.2639ZM359.315 40.3759C349.627 40.3759 340.555 34.9999 340.555 21.0559C340.555 6.49589 350.411 -0.00011301 360.603 -0.00011301C365.923 -0.00011301 369.507 1.84789 372.755 1.84789V14.4479C369.283 7.22389 365.195 4.53589 360.155 4.53589C355.115 4.53589 350.187 7.11189 350.187 19.3759C350.187 31.7519 355.227 35.8399 360.995 35.8399C365.307 35.8399 369.395 33.5439 372.755 28.3359V38.4719C369.115 38.4719 365.083 40.3759 359.315 40.3759ZM377.113 39.5359C379.801 37.5199 380.473 34.9999 380.473 32.0879V8.28789C380.473 5.37589 379.801 2.85589 377.113 0.839886H393.073C396.377 0.839886 399.905 0.783887 402.761 0.111886L404.385 10.3599C401.137 6.04789 397.609 5.43189 393.185 5.43189H389.209V17.8079H389.937C395.313 17.8079 399.345 17.5279 401.641 14.4479L401.025 26.9919C399.345 22.5679 394.865 22.1759 389.825 22.1759H389.209V34.9439H395.201C399.737 34.9439 403.433 34.0479 406.793 27.7199L404.777 40.3199C401.921 39.5919 398.393 39.5359 395.089 39.5359H377.113Z" fill="url(#paint0_linear_6034_3144)"/>
<defs>
<linearGradient id="paint0_linear_6034_3144" x1="203.768" y1="9.67651" x2="203.768" y2="30.8015" gradientUnits="userSpaceOnUse">
<stop stop-color="#21D0FC"/>
<stop offset="1" stop-color="#ECDCAA"/>
</linearGradient>
</defs>
</svg>
