<svg width="407" height="41" viewBox="0 0 407 41" fill="none" xmlns="http://www.w3.org/2000/svg">
<path d="M19.0401 0.84013C18.5361 1.68013 18.3121 2.63213 18.3121 3.52813C18.3121 8.51213 24.5841 22.3441 26.6001 29.2881C28.7281 21.7281 34.6081 9.85613 34.6081 4.03213C34.6081 3.02413 34.4961 1.84813 33.9361 0.84013H48.8321C47.5441 2.35213 47.0401 4.31213 47.0401 6.66413C47.0401 10.7521 48.7761 25.4801 49.5601 31.8081C49.9521 35.2241 51.1281 38.1921 52.6401 39.5361H37.9681C40.2081 37.9121 41.0481 35.3921 41.0481 32.6481C41.0481 28.4481 39.1441 15.1761 38.5841 8.68013C36.8481 16.3521 29.4001 32.2561 28.2801 39.7041H21.3921C20.6081 35.2801 12.3201 15.6801 10.2481 8.68013C9.85607 15.4561 7.95207 27.5521 7.95207 32.0881C7.95207 35.6721 9.12807 37.9121 11.8161 39.5361H6.65039e-05C1.51207 38.1921 2.63207 35.3921 3.13607 31.8081C3.52807 28.5601 5.60007 10.2481 5.60007 6.44013C5.60007 4.48013 5.09607 2.35213 3.80807 0.84013H19.0401ZM53.5571 39.5361C54.6771 38.5281 56.4131 35.1681 58.2611 31.0241C62.7411 21.0561 68.2291 6.55213 68.2291 3.97613C68.2291 2.91213 67.4451 1.40013 66.8851 0.84013H78.5891C79.9891 7.00013 84.9171 20.5521 89.6211 31.0801C91.2451 34.7201 92.7571 37.8561 94.1011 39.5361H79.6531C81.2211 38.4161 82.0051 37.2961 82.0051 35.3361C82.0051 31.2481 78.8691 28.6721 72.5971 28.6721C69.0131 28.6721 66.0451 29.4561 63.9171 30.5201C63.5251 31.8081 63.3011 32.8721 63.3011 33.6561C63.3011 35.3361 64.0851 38.2481 65.4291 39.5361H53.5571ZM65.3731 26.2641C68.1731 24.7521 71.8131 23.9121 75.2291 23.9121C76.0131 23.9121 76.7971 23.9681 77.5811 24.0801C76.0691 20.1041 73.4931 13.6641 71.8691 9.29613C70.4691 14.0561 67.4451 20.8321 65.3731 26.2641ZM94.8791 39.5361C97.5671 37.5201 98.2391 35.0001 98.2391 32.0881V8.28813C98.2391 5.37613 97.5671 2.85613 94.8791 0.84013H114.591C121.927 0.84013 126.351 4.25613 126.351 10.3601C126.351 15.9041 122.655 19.7681 118.063 21.3361C122.879 23.1281 125.063 27.8881 126.575 33.4321C127.079 35.3921 128.199 37.9681 130.551 39.5361H116.439C117.671 38.5841 118.175 37.0161 118.119 35.0561C118.063 29.8481 113.919 24.2481 107.927 24.2481C107.535 24.2481 107.143 24.2481 106.751 24.3041V32.0881C106.751 35.0001 107.423 37.5201 110.111 39.5361H94.8791ZM106.751 19.8801H111.063C114.759 19.8801 117.839 16.9681 117.839 11.7601C117.839 7.05613 115.319 4.98413 111.679 4.98413H106.751V19.8801ZM131.785 39.5361C134.473 37.5201 135.145 35.0001 135.145 32.0881V8.28813C135.145 5.37613 134.473 2.85613 131.785 0.84013H147.241C144.497 2.85613 143.881 5.37613 143.881 8.28813V20.9441C150.489 14.1121 156.873 7.22413 156.873 3.92013C156.873 2.57613 156.257 1.62413 155.305 0.84013H167.905C163.481 5.09613 159.281 9.52013 153.121 17.1361C159.561 19.6001 162.529 25.0321 164.601 32.2561C165.609 35.6161 166.505 37.8001 168.969 39.5361H154.857C156.089 38.5841 156.649 36.9601 156.593 34.8321C156.369 28.1121 152.281 22.6801 145.953 22.6801C145.225 22.6801 144.497 22.7361 143.881 22.9041V32.0881C143.881 35.0001 144.497 37.5201 147.241 39.5361H131.785ZM170.223 39.5361C172.911 37.5201 173.583 35.0001 173.583 32.0881V8.28813C173.583 5.37613 172.911 2.85613 170.223 0.84013H186.183C189.487 0.84013 193.015 0.784131 195.871 0.11213L197.495 10.3601C194.247 6.04813 190.719 5.43213 186.295 5.43213H182.319V17.8081H183.047C188.423 17.8081 192.455 17.5281 194.751 14.4481L194.135 26.9921C192.455 22.5681 187.975 22.1761 182.935 22.1761H182.319V34.9441H188.311C192.847 34.9441 196.543 34.0481 199.903 27.7201L197.887 40.3201C195.031 39.5921 191.503 39.5361 188.199 39.5361H170.223ZM210.713 39.5361C213.457 37.5201 214.129 35.0001 214.129 32.0881V5.43213H212.785C208.249 5.43213 204.833 6.04813 201.585 10.3601L203.153 0.11213C206.009 0.784131 209.537 0.84013 212.841 0.84013H224.097C227.401 0.84013 230.929 0.784131 233.785 0.11213L235.409 10.3601C232.105 6.04813 228.689 5.43213 224.209 5.43213H222.809V32.0881C222.809 35.0001 223.481 37.5201 226.169 39.5361H210.713ZM237.473 39.5361C240.161 37.5201 240.833 35.0001 240.833 32.0881V8.28813C240.833 5.37613 240.161 2.85613 237.473 0.84013H257.073C264.969 0.84013 268.889 4.31213 268.889 11.2001C268.889 18.4241 264.409 23.2401 256.401 24.9761L249.457 26.3201V32.0881C249.457 35.0001 250.465 37.5201 254.609 39.5361H237.473ZM249.457 21.3361H253.545C257.353 21.3361 260.377 18.1441 260.377 12.4321C260.377 7.22413 257.857 4.98413 254.161 4.98413H249.457V21.3361ZM271.371 39.5361C274.059 37.5201 274.731 35.0001 274.731 32.0881V8.28813C274.731 5.37613 274.059 2.85613 271.371 0.84013H286.827C284.083 2.85613 283.467 5.37613 283.467 8.28813V34.9441H288.059C292.595 34.9441 296.235 34.0481 299.595 27.7201L297.579 40.3201C294.779 39.5921 291.251 39.5361 287.891 39.5361H271.371ZM300.088 39.5361C301.208 38.5281 302.944 35.1681 304.792 31.0241C309.272 21.0561 314.76 6.55213 314.76 3.97613C314.76 2.91213 313.976 1.40013 313.416 0.84013H325.12C326.52 7.00013 331.448 20.5521 336.152 31.0801C337.776 34.7201 339.288 37.8561 340.632 39.5361H326.184C327.752 38.4161 328.536 37.2961 328.536 35.3361C328.536 31.2481 325.4 28.6721 319.128 28.6721C315.544 28.6721 312.576 29.4561 310.448 30.5201C310.056 31.8081 309.832 32.8721 309.832 33.6561C309.832 35.3361 310.616 38.2481 311.96 39.5361H300.088ZM311.904 26.2641C314.704 24.7521 318.344 23.9121 321.76 23.9121C322.544 23.9121 323.328 23.9681 324.112 24.0801C322.6 20.1041 320.024 13.6641 318.4 9.29613C317 14.0561 313.976 20.8321 311.904 26.2641ZM359.315 40.3761C349.627 40.3761 340.555 35.0001 340.555 21.0561C340.555 6.49613 350.411 0.00013113 360.603 0.00013113C365.923 0.00013113 369.507 1.84813 372.755 1.84813V14.4481C369.283 7.22413 365.195 4.53613 360.155 4.53613C355.115 4.53613 350.187 7.11213 350.187 19.3761C350.187 31.7521 355.227 35.8401 360.995 35.8401C365.307 35.8401 369.395 33.5441 372.755 28.3361V38.4721C369.115 38.4721 365.083 40.3761 359.315 40.3761ZM377.113 39.5361C379.801 37.5201 380.473 35.0001 380.473 32.0881V8.28813C380.473 5.37613 379.801 2.85613 377.113 0.84013H393.073C396.377 0.84013 399.905 0.784131 402.761 0.11213L404.385 10.3601C401.137 6.04813 397.609 5.43213 393.185 5.43213H389.209V17.8081H389.937C395.313 17.8081 399.345 17.5281 401.641 14.4481L401.025 26.9921C399.345 22.5681 394.865 22.1761 389.825 22.1761H389.209V34.9441H395.201C399.737 34.9441 403.433 34.0481 406.793 27.7201L404.777 40.3201C401.921 39.5921 398.393 39.5361 395.089 39.5361H377.113Z" fill="#FEFCF4"/>
</svg>
